# xmcd
#
# Track frame offsets:
#	150
#	34500
#	59470
#
# Disc length: 1075 seconds
#
# Revision: 0
# Processed by: cddbd v1.5.1PL2 Copyright (c) Steve Scherf et al.
# Submitted via: dBpowerAMP V4.0
#
DISCID=1e043103
DTITLE=Michael Eccoh - Journey To Stardom
DYEAR=2006
DGENRE=Acapella
TTITLE0=z
TTITLE1=Sky
TTITLE2=Bridge
EXTD=Concrete Rose Journey To Stardom
EXTT0=
EXTT1=
EXTT2=
PLAYORDER=
